<svg width="46" height="37" viewBox="0 0 46 37" fill="none" xmlns="http://www.w3.org/2000/svg">
<rect x="0.5" y="0.5" width="45" height="36" stroke="black" stroke-opacity="0.05"/>
<path d="M6.90001 4.60465C6.89666 4.35932 6.77228 4.12512 6.55424 3.95355C6.3362 3.78199 6.04236 3.68712 5.73736 3.68982C5.43237 3.69252 5.14119 3.79256 4.9279 3.96794C4.7146 4.14332 4.59666 4.37967 4.60001 4.625V32.375C4.60001 32.6203 4.72118 32.8556 4.93684 33.0291C5.15251 33.2025 5.44502 33.3 5.75001 33.3H40.25C40.555 33.3 40.8475 33.2025 41.0632 33.0291C41.2789 32.8556 41.4 32.6203 41.4 32.375C41.4 32.1297 41.2789 31.8944 41.0632 31.7209C40.8475 31.5475 40.555 31.45 40.25 31.45H6.90001V4.60465ZM36.8 29.6V10.175C36.7997 10.0009 36.7384 9.83048 36.623 9.68322C36.5076 9.53596 36.343 9.41786 36.1479 9.3425C35.9528 9.26714 35.7353 9.23758 35.5203 9.25722C35.3053 9.27685 35.1015 9.34489 34.9324 9.4535L24.0419 16.4594L16.6704 13.0721C16.5141 13.0003 16.339 12.9591 16.1592 12.9517C15.9794 12.9443 15.8 12.971 15.6354 13.0295L9.20002 15.3291V29.6H36.8Z" fill="#31493C"/>
</svg>
