<svg width="16" height="14" viewBox="0 0 16 14" fill="none" xmlns="http://www.w3.org/2000/svg">
<path fill-rule="evenodd" clip-rule="evenodd" d="M0.571429 14H16V13H1.14286V0H0V13.5L0.571429 14ZM2.28571 11.5V3.5L2.85714 3H5.14286L5.71429 3.5V11.5L5.14286 12H2.85714L2.28571 11.5ZM4.57143 11V4H3.42857V11H4.57143ZM11.4286 1.5V11.5L12 12H14.2857L14.8571 11.5V1.5L14.2857 1H12L11.4286 1.5ZM13.7143 2V11H12.5714V2H13.7143ZM6.85714 11.5V5.5L7.42857 5H9.71429L10.2857 5.5V11.5L9.71429 12H7.42857L6.85714 11.5ZM9.14286 11V6H8V11H9.14286Z" fill="#001A23" fill-opacity="0.7"/>
</svg>
